<?xml version="1.0" encoding="utf-8"?>
<!-- Generator: Adobe Illustrator 21.1.0, SVG Export Plug-In . SVG Version: 6.00 Build 0)  -->
<svg version="1.1" id="Calque_1" xmlns="http://www.w3.org/2000/svg" xmlns:xlink="http://www.w3.org/1999/xlink" x="0px" y="0px"
	 viewBox="0 0 512 512" style="enable-background:new 0 0 512 512;" xml:space="preserve">
<style type="text/css">
	.st0{fill:#FFFFFF;stroke:url(#SVGID_1_);stroke-width:20;stroke-linecap:round;stroke-linejoin:round;stroke-miterlimit:10;}
	.st1{fill:#FFFFFF;stroke:url(#SVGID_2_);stroke-width:20;stroke-linecap:round;stroke-linejoin:round;stroke-miterlimit:10;}
	.st2{fill:#FFFFFF;stroke:url(#SVGID_3_);stroke-width:20;stroke-linecap:round;stroke-linejoin:round;stroke-miterlimit:10;}
	.st3{fill:#FFFFFF;stroke:url(#SVGID_4_);stroke-width:20;stroke-linecap:round;stroke-linejoin:round;stroke-miterlimit:10;}
	.st4{fill:#FFFFFF;stroke:url(#SVGID_5_);stroke-width:20;stroke-linecap:round;stroke-linejoin:round;stroke-miterlimit:10;}
	.st5{fill:#FFFFFF;stroke:url(#SVGID_6_);stroke-width:20;stroke-linecap:round;stroke-linejoin:round;stroke-miterlimit:10;}
	.st6{fill:#FFFFFF;stroke:url(#SVGID_7_);stroke-width:20;stroke-linecap:round;stroke-linejoin:round;stroke-miterlimit:10;}
	.st7{fill:#FFFFFF;stroke:url(#SVGID_8_);stroke-width:20;stroke-linecap:round;stroke-linejoin:round;stroke-miterlimit:10;}
	.st8{fill:#FFFFFF;stroke:url(#SVGID_9_);stroke-width:8;stroke-linecap:round;stroke-linejoin:round;stroke-miterlimit:10;}
</style>
<g id="flat">
	<linearGradient id="SVGID_1_" gradientUnits="userSpaceOnUse" x1="302" y1="376" x2="370" y2="376">
		<stop  offset="0" style="stop-color:#1D5F60"/>
		<stop  offset="0.5242" style="stop-color:#1B5D5E"/>
		<stop  offset="0.7469" style="stop-color:#165657"/>
		<stop  offset="0.9119" style="stop-color:#0B4A4A"/>
		<stop  offset="1" style="stop-color:#034040"/>
	</linearGradient>
	<polygon class="st0" points="344,456 312,456 312,296 360,296 	"/>
	<linearGradient id="SVGID_2_" gradientUnits="userSpaceOnUse" x1="57.84" y1="295.1949" x2="183.1053" y2="295.1949">
		<stop  offset="0" style="stop-color:#1D5F60"/>
		<stop  offset="0.5242" style="stop-color:#1B5D5E"/>
		<stop  offset="0.7469" style="stop-color:#165657"/>
		<stop  offset="0.9119" style="stop-color:#0B4A4A"/>
		<stop  offset="1" style="stop-color:#034040"/>
	</linearGradient>
	<path class="st1" d="M160,488c0,0-144-88-72-200c56-88,58.9-111.8,40-144c-4.1-6.9-16-32,0-40s28,16,32,24c24,48,16,88-32,160
		c-72,96,32,152,32,152V488z"/>
	<linearGradient id="SVGID_3_" gradientUnits="userSpaceOnUse" x1="290.2222" y1="68" x2="365.7778" y2="68">
		<stop  offset="0" style="stop-color:#1D5F60"/>
		<stop  offset="0.5242" style="stop-color:#1B5D5E"/>
		<stop  offset="0.7469" style="stop-color:#165657"/>
		<stop  offset="0.9119" style="stop-color:#0B4A4A"/>
		<stop  offset="1" style="stop-color:#034040"/>
	</linearGradient>
	<path class="st2" d="M352,112h-48c-16-24,24-88,24-88S368,88,352,112z"/>
	<linearGradient id="SVGID_4_" gradientUnits="userSpaceOnUse" x1="123.7751" y1="288" x2="450" y2="288">
		<stop  offset="0" style="stop-color:#1D5F60"/>
		<stop  offset="0.5242" style="stop-color:#1B5D5E"/>
		<stop  offset="0.7469" style="stop-color:#165657"/>
		<stop  offset="0.9119" style="stop-color:#0B4A4A"/>
		<stop  offset="1" style="stop-color:#034040"/>
	</linearGradient>
	<path class="st3" d="M408,104c-10.3-10.3-16-16-64-16c-64,0-56,64-56,72c0,31.2,4.2,57.9-80,88c-112,40-64,240-64,240h136
		c0,0-2.9-125.6,40-144c56-24,48-112,48-112v-16c0-48,56-40,56-40l16-40L408,104z"/>
	<linearGradient id="SVGID_5_" gradientUnits="userSpaceOnUse" x1="302" y1="472" x2="402" y2="472">
		<stop  offset="0" style="stop-color:#1D5F60"/>
		<stop  offset="0.5242" style="stop-color:#1B5D5E"/>
		<stop  offset="0.7469" style="stop-color:#165657"/>
		<stop  offset="0.9119" style="stop-color:#0B4A4A"/>
		<stop  offset="1" style="stop-color:#034040"/>
	</linearGradient>
	<path class="st4" d="M312,456h64c8.8,0,16,7.2,16,16v16l0,0h-80l0,0V456L312,456z"/>
	<linearGradient id="SVGID_6_" gradientUnits="userSpaceOnUse" x1="302" y1="428" x2="359.616" y2="428">
		<stop  offset="0" style="stop-color:#1D5F60"/>
		<stop  offset="0.5242" style="stop-color:#1B5D5E"/>
		<stop  offset="0.7469" style="stop-color:#165657"/>
		<stop  offset="0.9119" style="stop-color:#0B4A4A"/>
		<stop  offset="1" style="stop-color:#034040"/>
	</linearGradient>
	<polygon class="st5" points="312,456 344,456 349.6,400 312,400 	"/>
	<linearGradient id="SVGID_7_" gradientUnits="userSpaceOnUse" x1="302" y1="384" x2="362.816" y2="384">
		<stop  offset="0" style="stop-color:#1D5F60"/>
		<stop  offset="0.5242" style="stop-color:#1B5D5E"/>
		<stop  offset="0.7469" style="stop-color:#165657"/>
		<stop  offset="0.9119" style="stop-color:#0B4A4A"/>
		<stop  offset="1" style="stop-color:#034040"/>
	</linearGradient>
	<polygon class="st6" points="312,368 312,400 349.6,400 352.8,368 	"/>
	<linearGradient id="SVGID_8_" gradientUnits="userSpaceOnUse" x1="242.696" y1="246.724" x2="378.382" y2="246.724">
		<stop  offset="0" style="stop-color:#1D5F60"/>
		<stop  offset="0.5242" style="stop-color:#1B5D5E"/>
		<stop  offset="0.7469" style="stop-color:#165657"/>
		<stop  offset="0.9119" style="stop-color:#0B4A4A"/>
		<stop  offset="1" style="stop-color:#034040"/>
	</linearGradient>
	<path class="st7" d="M282,200.3L282,200.3c-2,3.7-4.4,7.2-7.2,10.3l0,0c-1,1.1-2.1,2.2-3.2,3.4l-0.1,0.1c-4,3.8-8.4,7.2-13,10.2
		l-0.3,0.2c-1.7,1.1-3.5,2.2-5.4,3.4l0,0C279,263,318,286.4,361.4,293.1c5.7-19.8,8-40.5,6.6-61.1v-14.8
		C338.5,217,309.4,211.3,282,200.3z"/>
</g>
<linearGradient id="SVGID_9_" gradientUnits="userSpaceOnUse" x1="362.382" y1="128.1124" x2="394.382" y2="128.1124">
	<stop  offset="0" style="stop-color:#1D5F60"/>
	<stop  offset="0.5242" style="stop-color:#1B5D5E"/>
	<stop  offset="0.7469" style="stop-color:#165657"/>
	<stop  offset="0.9119" style="stop-color:#0B4A4A"/>
	<stop  offset="1" style="stop-color:#034040"/>
</linearGradient>
<path class="st8" d="M381.7,140.1h-6.6c-4.8,0-8.7-3.9-8.7-8.7v-6.6c0-4.8,3.9-8.7,8.7-8.7h6.6c4.8,0,8.7,3.9,8.7,8.7v6.6
	C390.4,136.2,386.5,140.1,381.7,140.1z"/>
</svg>
