<svg id="Calque_1" data-name="Calque 1" xmlns="http://www.w3.org/2000/svg" xmlns:xlink="http://www.w3.org/1999/xlink" viewBox="0 0 44 32"><defs><style>.cls-1{fill:url(#Dégradé_sans_nom_18);}.cls-2{fill:url(#Dégradé_sans_nom_18-2);}</style><linearGradient id="Dégradé_sans_nom_18" x1="22" y1="38" x2="22" y2="6" gradientUnits="userSpaceOnUse"><stop offset="0" stop-color="#1d5f60"/><stop offset="0.41" stop-color="#1c5d5e"/><stop offset="0.58" stop-color="#1a5657"/><stop offset="0.71" stop-color="#164a4a"/><stop offset="0.81" stop-color="#113839"/><stop offset="0.9" stop-color="#0a2122"/><stop offset="0.99" stop-color="#020606"/><stop offset="1"/></linearGradient><linearGradient id="Dégradé_sans_nom_18-2" x1="22" y1="28.39" x2="22" y2="8" xlink:href="#Dégradé_sans_nom_18"/></defs><title>contact</title><path class="cls-1" d="M43,6H1A1,1,0,0,0,0,7V37a1,1,0,0,0,1,1H43a1,1,0,0,0,1-1V7A1,1,0,0,0,43,6ZM42,33.58,29.61,21.19,28.2,22.61,41.59,36H2.41L15.8,22.61l-1.41-1.41L2,33.58V8H42Z" transform="translate(0 -6)"/><path class="cls-2" d="M40,8,22,26,4,8H2v.81L21.29,28.1a1,1,0,0,0,1.41,0L42,8.81V8Z" transform="translate(0 -6)"/></svg>