<?xml version="1.0" encoding="utf-8"?>
<!-- Generator: Adobe Illustrator 21.1.0, SVG Export Plug-In . SVG Version: 6.00 Build 0)  -->
<svg version="1.1" id="Plan_1" xmlns="http://www.w3.org/2000/svg" xmlns:xlink="http://www.w3.org/1999/xlink" x="0px" y="0px"
	 viewBox="0 0 147.3 148.3" style="enable-background:new 0 0 147.3 148.3;" xml:space="preserve">
<style type="text/css">
	.st0{fill:url(#SVGID_1_);}
	.st1{fill:url(#SVGID_2_);}
	.st2{fill:url(#SVGID_3_);}
	.st3{fill:url(#SVGID_4_);}
	.st4{fill:url(#SVGID_5_);}
</style>
<title>hairlessness</title>
<linearGradient id="SVGID_1_" gradientUnits="userSpaceOnUse" x1="73.5911" y1="76.6518" x2="73.5911" y2="94.2218" gradientTransform="matrix(1 0 0 -1 -27.79 179.04)">
	<stop  offset="0" style="stop-color:#1D5F60"/>
	<stop  offset="0.38" style="stop-color:#1A5C5D"/>
	<stop  offset="0.69" style="stop-color:#125253"/>
	<stop  offset="0.97" style="stop-color:#054242"/>
	<stop  offset="1" style="stop-color:#034040"/>
</linearGradient>
<path class="st0" d="M40.7,101.5c-5.3-2.9-6.5-9.6-6.2-15.4c6.9-1.5,12.2-2.5,17.7,2.2c3.1,4.6,5.6,7,4.8,12.9
	C51,101.2,44,103.7,40.7,101.5z"/>
<linearGradient id="SVGID_2_" gradientUnits="userSpaceOnUse" x1="130.4573" y1="76.946" x2="130.4573" y2="93.9452" gradientTransform="matrix(1 0 0 -1 -27.79 179.04)">
	<stop  offset="0" style="stop-color:#1D5F60"/>
	<stop  offset="0.38" style="stop-color:#1A5C5D"/>
	<stop  offset="0.69" style="stop-color:#125253"/>
	<stop  offset="0.97" style="stop-color:#054242"/>
	<stop  offset="1" style="stop-color:#034040"/>
</linearGradient>
<path class="st1" d="M107.5,101.2c5-2.9,6.1-8.5,5.9-14.3c-6.5-1.5-11.6-3.7-16.8,1c-4.3,3.5-5.2,7-4.5,12.9
	C97.8,100.9,104.4,103.4,107.5,101.2z"/>
<linearGradient id="SVGID_3_" gradientUnits="userSpaceOnUse" x1="56.6444" y1="93.31" x2="56.6444" y2="179.056" gradientTransform="matrix(1 0 0 -1 -27.79 179.04)">
	<stop  offset="0" style="stop-color:#1D5F60"/>
	<stop  offset="0.52" style="stop-color:#1B5D5E"/>
	<stop  offset="0.75" style="stop-color:#165657"/>
	<stop  offset="0.91" style="stop-color:#0B4A4A"/>
	<stop  offset="1" style="stop-color:#034040"/>
</linearGradient>
<path class="st2" d="M46.3,59.1c4.2,5.8,13.2-0.9,11.1-6.3C44.5,31.7,32.6,14,15.6,2.2C9.1-1.8,0-0.8,0,8.2L4.2,61
	c2.4,12.9,10.1,24.4,18.9,24.7c-5.7-7.8-12.1-17-12.5-27.6c-0.9-13-1.8-27.3-2.7-40.3c-0.8-5.5,4.6-7.2,9.5-2.5
	C27.6,24.9,38.9,41.4,46.3,59.1z"/>
<linearGradient id="SVGID_4_" gradientUnits="userSpaceOnUse" x1="147.0515" y1="93.58" x2="147.0515" y2="177.6218" gradientTransform="matrix(1 0 0 -1 -27.79 179.04)">
	<stop  offset="0" style="stop-color:#1D5F60"/>
	<stop  offset="0.52" style="stop-color:#1B5D5E"/>
	<stop  offset="0.75" style="stop-color:#165657"/>
	<stop  offset="0.91" style="stop-color:#0B4A4A"/>
	<stop  offset="1" style="stop-color:#034040"/>
</linearGradient>
<path class="st3" d="M103.7,58.8c-4,5.8-14.2-2.1-12.2-7.5c12.2-21.1,24.9-34.9,40.9-46.7c6.2-4,14.9-5.7,14.9,3.3l-4,52.8
	c-2.3,12.9-9.5,24.4-17.8,24.7c5.3-7.8,11.4-17,11.8-27.6c0.9-13,1.7-27.3,2.5-40.3c0.7-5.5-4.4-7.2-8.9-2.5
	C121.3,24.7,110.6,41.2,103.7,58.8z"/>
<linearGradient id="SVGID_5_" gradientUnits="userSpaceOnUse" x1="102.0712" y1="33.9475" x2="102.0712" y2="56.6183" gradientTransform="matrix(1 0 0 -1 -27.79 179.04)">
	<stop  offset="0" style="stop-color:#1D5F60"/>
	<stop  offset="0.52" style="stop-color:#1B5D5E"/>
	<stop  offset="0.75" style="stop-color:#165657"/>
	<stop  offset="0.91" style="stop-color:#0B4A4A"/>
	<stop  offset="1" style="stop-color:#034040"/>
</linearGradient>
<path class="st4" d="M68.5,126.8c-2.3-0.7-7.7-3.2-5.2-3.6c6.5-1,13.1-1,19.6-0.1c6.2,0.6-0.7,2.3-4,3.9c-2.6,1.2-3.6,4.4-4.2,5.8
	c0.1,2.1,0,4.4,0,6.6c5.1,0.8,10,2.2,14.7,4.2c1.5,1.4,0.7,1.4-1.3,0.9c-10.5-4.5-15.2-5.1-27.4,0.3c-1.3,0.5-3.5,0.4-1.7-0.6
	c4.7-2.3,9.7-3.9,14.8-4.8c-0.1-2.1,0-4.5-0.1-6.6C73.1,131,71.6,127.8,68.5,126.8z"/>
</svg>
